HIERARCHY
ROOT Hips
{
	OFFSET 0.00000 0.00000 0.00000
	CHANNELS 6 Xposition Yposition Zposition Yrotation Zrotation Xrotation 
	JOINT Lumbar
	{
		OFFSET 0 0 0
		CHANNELS 3 Zrotation Xrotation Yrotation
		JOINT Neck
		{
			OFFSET 0.00 0.2701 0.00
			CHANNELS 3 Zrotation Xrotation Yrotation
			End Site
			{
				OFFSET 0.00 0.1379 0.00
			}
		}
		JOINT RightShoulder
		{
			OFFSET 0.0119 0.2289 0.1181
			CHANNELS 3 Zrotation Xrotation Yrotation
			JOINT RightElbow
			{
				OFFSET 0.00 -0.1475 0.00
				CHANNELS 2 Zrotation Yrotation
				JOINT RightWrist
				{
					OFFSET 0.00 -0.1605 0.00
					CHANNELS 2 Zrotation Xrotation
					End Site
					{
						OFFSET 0.0040 -0.1068 0.0006
					}
				}
			}
		}
		JOINT LeftShoulder
		{
			OFFSET 0.0119 0.2289 -0.1181
			CHANNELS 3 Zrotation Xrotation Yrotation
			JOINT LeftElbow
			{
				OFFSET 0.00 -0.1475 0.00
				CHANNELS 2 Zrotation Yrotation
				JOINT LeftWrist
				{
					OFFSET 0.00 -0.1605 0.00
					CHANNELS 2 Zrotation Xrotation
					End Site
					{
						OFFSET 0.0040 -0.1068 -0.0006
					}
				}
			}
		}
	}
	JOINT RightHip
	{
		OFFSET 0.0316 -0.0424 0.0458
		CHANNELS 3 Zrotation Xrotation Yrotation
		JOINT RightKnee
		{
			OFFSET 0.00 -0.2438 0.00
			CHANNELS 1 Zrotation
			JOINT RightAnkle
			{
				OFFSET 0.00 -0.2449 0.00
				CHANNELS 3 Zrotation Xrotation Yrotation
				End Site
				{
					OFFSET 0.1237 -0.0542 0.0051
				}
			}
		}
	}
	JOINT LeftHip
	{
		OFFSET 0.0316 -0.0424 -0.0458
		CHANNELS 3 Zrotation Xrotation Yrotation
		JOINT LeftKnee
		{
			OFFSET 0.00 -0.2438 0.00
			CHANNELS 1 Zrotation
			JOINT LeftAnkle
			{
				OFFSET 0.00 -0.2449 0.00
				CHANNELS 3 Zrotation Xrotation Yrotation
				End Site
				{
					OFFSET 0.1237 -0.0542 -0.0051
				}
			}
		}
	}
}
MOTION
Frames: 27
Frame Time: 0.02
0.03593 -0.0141 -0.06057 -184.20252 -27.89371 -5.84253 52.22633 5.84767 -7.30407 -24.64966 1.35782 -2.11878 22.94574 -108.1038 15.49603 127.22935 69.19178 34.64035 -5.51197 49.06452 122.85015 -47.14327 126.71354 -79.68349 32.9371 3.17924 26.70726 11.28401 -31.66431 -18.01516 -7.23472 -0.47708 -2.51067 42.38001 -2.73817 22.58557 -32.05357 -7.94101 2.40135 3.46957
0.03432 -0.01403 -0.06231 -184.55125 -27.93612 -5.64233 52.19615 5.6816 -6.72708 -24.50512 1.17423 -2.11878 21.1782 -108.43346 13.75463 127.07111 68.98014 34.61809 -5.69404 50.0845 122.6531 -48.61658 126.90791 -80.23469 32.58088 3.14822 26.44867 11.27828 -31.57887 -17.80213 -7.29268 -0.44032 -2.49659 42.26004 -2.71346 22.7249 -32.01275 -7.91683 2.42295 3.47951
0.0328 -0.01379 -0.06402 -185.00537 -27.91836 -5.35514 52.07834 5.53089 -5.99112 -24.34726 0.99122 -2.11878 19.03873 -108.83661 11.59453 126.84253 68.73684 34.59518 -5.87618 51.16305 122.57622 -50.30035 127.13555 -80.77143 32.10321 3.07064 26.1253 11.21689 -31.22652 -17.54567 -7.33887 -0.40616 -2.48367 42.20752 -2.6937 22.88032 -32.14974 -7.93617 2.44794 3.49318
0.03125 -0.01363 -0.06573 -185.40323 -27.93177 -5.10685 52.00367 5.37415 -5.33823 -24.19568 0.80512 -2.11879 17.08071 -109.22553 9.62597 126.63585 68.48347 34.55875 -6.04674 52.08182 122.48029 -51.84407 127.34305 -81.30999 31.58152 3.0138 25.83807 11.18008 -30.98468 -17.31229 -7.38382 -0.37193 -2.47043 42.12349 -2.67946 23.02121 -32.19703 -7.93505 2.47227 3.50552
0.02967 -0.01344 -0.06749 -185.83883 -27.9293 -4.8592 51.9169 5.21309 -4.63604 -24.04392 0.63121 -2.11879 15.06153 -109.53496 7.64564 126.47198 68.32656 34.57865 -6.26558 53.56997 122.23831 -53.58297 127.57675 -81.86647 31.47578 2.95753 25.52167 11.14457 -30.78448 -17.06398 -7.44019 -0.32884 -2.45376 42.04265 -2.63456 23.19746 -32.28 -7.93676 2.49364 3.51671
0.02816 -0.01327 -0.06913 -186.21873 -27.94565 -4.59062 51.83349 5.06501 -4.00109 -23.88871 0.43161 -2.11879 13.08939 -110.02591 5.59684 126.20084 67.96892 34.48223 -6.38499 53.88101 122.3235 -54.96281 127.75906 -82.38829 30.4754 2.8932 25.25142 11.09379 -30.43824 -16.83704 -7.47557 -0.30603 -2.4453 41.97179 -2.65327 23.30311 -32.33232 -7.94282 2.52143 3.5309
0.02679 -0.01314 -0.07046 -186.43355 -28.02696 -4.28194 51.78456 4.94657 -3.57928 -23.73188 0.16527 -2.11879 11.28033 -111.01182 3.41268 125.66606 67.00142 34.05863 -6.21821 50.95559 123.32589 -55.29179 127.82429 -82.74223 27.04458 2.7683 25.1191 11.01445 -29.72164 -16.67627 -7.46182 -0.34261 -2.46115 41.90654 -2.85403 23.19566 -32.24779 -7.95154 2.56952 3.55422
0.0255 -0.01303 -0.07166 -186.58569 -28.12952 -3.95607 51.74109 4.84115 -3.23312 -23.5712 -0.12758 -2.11879 9.54237 -112.17542 1.18369 125.02275 65.84469 33.51854 -5.95345 46.83827 124.64095 -55.25115 127.82917 -83.06809 22.71933 2.64306 25.03651 10.92195 -28.87315 -16.53918 -7.42672 -0.39874 -2.48489 41.85004 -3.11703 23.01815 -32.12811 -7.96291 2.62328 3.58011
0.02419 -0.01292 -0.07291 -186.75702 -28.2235 -3.64074 51.69247 4.73138 -2.86017 -23.4091 -0.41132 -2.1188 7.81072 -113.25023 -0.99289 124.41963 64.8166 33.03707 -5.74108 43.24662 125.79027 -55.38535 127.84122 -83.46512 18.79341 2.55351 24.93472 10.83566 -28.10683 -16.39363 -7.40247 -0.44484 -2.50466 41.79305 -3.34626 22.88145 -32.0303 -7.97219 2.67215 3.60365
0.02282 -0.01277 -0.07419 -186.97184 -28.311 -3.31099 51.65222 4.61552 -2.44957 -23.25963 -0.68329 -2.1188 5.90444 -114.36245 -3.32044 123.85388 63.60847 32.53492 -5.4955 39.7219 127.06184 -55.50336 127.94443 -83.64498 14.88053 2.32331 24.81629 10.74627 -27.2386 -16.23698 -7.38076 -0.49863 -2.52761 41.72357 -3.59867 22.70847 -31.91356 -7.98667 2.73087 3.63226
0.02158 -0.0127 -0.07539 -187.07912 -28.41762 -3.00811 51.59679 4.51528 -2.13744 -23.08347 -0.98527 -2.1188 4.38178 -115.43684 -5.33738 123.18384 62.72939 32.04397 -5.29582 35.77735 128.1286 -55.55789 127.83741 -84.23327 10.7458 2.37285 24.7452 10.66115 -26.55321 -16.10948 -7.33872 -0.53745 -2.54386 41.68147 -3.81776 22.59305 -31.82585 -7.99048 2.77044 3.65092
0.02065 -0.01284 -0.07642 -186.91025 -28.57394 -2.78625 51.5001 4.4546 -2.08002 -22.83129 -1.37061 -2.11881 3.9179 -116.37277 -6.49612 122.26565 62.81828 31.64936 -5.24678 30.92933 128.73534 -55.56503 127.21051 -86.29949 6.09369 3.31488 24.79298 10.58956 -26.41999 -16.05849 -7.3403 -0.56342 -2.55761 41.71086 -3.92717 22.66372 -31.82346 -7.96293 2.75497 3.64103
0.01986 -0.01305 -0.07739 -186.63398 -28.74877 -2.59204 51.38803 4.40932 -2.11986 -22.55293 -1.7839 -2.11881 3.83544 -117.26228 -7.33753 121.24381 63.24275 31.26374 -5.2473 25.70258 129.08158 -55.50051 126.36444 -88.7296 1.28266 4.51771 24.88705 10.52328 -26.47397 -16.03596 -7.30923 -0.56914 -2.5619 41.76746 -4.00122 22.79314 -31.85101 -7.92454 2.72011 3.62109
0.01901 -0.01323 -0.07839 -186.40248 -28.91393 -2.38381 51.28206 4.35703 -2.11489 -22.28896 -2.17989 -2.11882 3.57037 -118.16658 -8.31409 120.26151 63.50497 30.84903 -5.22518 20.67707 129.43851 -55.45894 125.58964 -90.7479 -3.38628 5.52085 24.95994 10.4558 -26.43364 -15.99942 -7.22532 -0.56019 -2.55764 41.81263 -4.09315 22.8885 -31.86647 -7.89176 2.69465 3.60604
0.01813 -0.01342 -0.07939 -186.18502 -29.08472 -2.18078 51.1798 4.30475 -2.11422 -22.01492 -2.59641 -2.11882 3.3505 -119.10409 -9.32711 119.30866 63.80096 30.53336 -5.20021 15.50227 130.29803 -55.49632 124.93621 -93.7403 -8.42149 6.86071 25.03478 10.38268 -26.42717 -15.96808 -7.40736 -0.64578 -2.60423 41.85445 -4.18005 23.01096 -31.87534 -7.85633 2.66703 3.58979
0.01734 -0.0136 -0.08038 -185.91471 -29.24841 -1.97409 51.06631 4.25658 -2.12772 -21.75492 -2.97624 -2.11882 3.1214 -119.95864 -10.19274 118.26959 64.10972 30.01814 -5.19414 10.54493 129.9985 -55.29293 123.97388 -94.87251 -12.66972 7.56859 25.11633 10.3228 -26.39684 -15.93255 -7.05187 -0.53808 -2.54717 41.90927 -4.26768 23.09376 -31.9043 -7.82364 2.63909 3.57354
0.01671 -0.01374 -0.08136 -185.51624 -29.38411 -1.74752 50.92431 4.21048 -2.148 -21.54664 -3.24956 -2.11883 2.81427 -120.59826 -10.68959 117.03258 64.36403 28.92388 -5.22935 6.46176 126.97281 -55.01588 122.25259 -90.06007 -15.1442 6.40362 25.20185 10.29773 -26.25178 -15.87673 -5.01101 0.17472 -2.16558 41.99653 -4.37033 23.03611 -31.99161 -7.8026 2.61634 3.56033
0.01616 -0.01388 -0.08233 -185.0707 -29.51297 -1.51703 50.77197 4.16908 -2.18036 -21.35214 -3.48449 -2.11883 2.47628 -121.15453 -11.05654 115.71009 64.62154 27.634 -5.28218 2.59115 122.72389 -54.41062 120.22018 -83.48605 -16.74482 4.6056 25.29321 10.28593 -26.07745 -15.81596 -2.46647 1.06833 -1.68694 42.09577 -4.47385 22.93964 -32.09641 -7.78445 2.59375 3.54738
0.01558 -0.01402 -0.08331 -184.65191 -29.64697 -1.29031 50.62493 4.12891 -2.21251 -21.14715 -3.73588 -2.11884 2.12596 -121.74627 -11.50805 114.41769 64.88412 26.45106 -5.32663 -1.50019 118.74824 -53.5598 118.30472 -78.20463 -18.44088 3.1393 25.38337 10.26842 -25.91929 -15.75842 -0.29356 1.82775 -1.2801 42.18673 -4.57379 22.87262 -32.1866 -7.76398 2.57007 3.53384
0.01501 -0.01416 -0.08429 -184.20456 -29.77171 -1.05588 50.47399 4.07453 -2.22604 -20.95934 -3.99272 -2.11884 1.90222 -122.34686 -11.83916 113.15889 65.13261 25.19179 -5.37419 -5.11615 115.9056 -54.30329 116.48706 -70.90525 -21.37574 1.49616 25.46769 10.2498 -25.75573 -15.69752 2.47073 2.80281 -0.75851 42.28859 -4.68588 22.75917 -32.30573 -7.74723 2.54964 3.52176
0.01442 -0.0143 -0.08527 -183.80963 -29.91553 -0.83657 50.32996 4.05134 -2.27966 -20.73902 -4.22838 -2.11884 1.40007 -122.90959 -12.39635 111.81078 65.40448 24.04546 -5.41898 -9.62319 110.48034 -51.73613 114.3918 -67.32735 -21.5721 0.06771 25.56664 10.23648 -25.59374 -15.64234 4.13794 3.37728 -0.44988 42.3728 -4.77342 22.73068 -32.36861 -7.72373 2.5232 3.50705
0.01375 -0.01444 -0.0863 -183.54892 -30.09865 -0.657 50.19798 4.1073 -2.44299 -20.42878 -4.41756 -2.11885 0.15505 -123.39003 -13.59436 110.24054 65.75461 23.25677 -5.45089 -17.01565 97.66634 -39.35429 111.63224 -74.95789 -13.97256 -0.61409 25.68891 10.23545 -25.44526 -15.60147 2.51807 2.75042 -0.78 42.38265 -4.79194 22.96158 -32.26977 -7.67966 2.47633 3.48312
0.01307 -0.01458 -0.08733 -183.34762 -30.30344 -0.49327 50.07457 4.19545 -2.64539 -20.085 -4.58604 -2.11885 -1.37473 -123.83532 -15.0292 108.58308 66.12058 22.5904 -5.47977 -25.24298 82.39864 -23.78907 108.60097 -86.29782 -3.72848 -1.05848 25.82772 10.23914 -25.29808 -15.56661 -0.19887 1.72344 -1.32287 42.378 -4.78596 23.27631 -32.1141 -7.62901 2.42424 3.45695
0.0124 -0.01471 -0.08837 -183.13367 -30.50868 -0.32403 49.95437 4.27267 -2.82809 -19.75442 -4.76226 -2.11885 -2.78774 -124.29545 -16.36669 106.96395 66.47218 21.86742 -5.50982 -32.83849 68.62311 -10.1806 105.67716 -95.61059 5.0103 -1.61291 25.96985 10.23997 -25.14808 -15.531 -2.32484 0.91314 -1.7506 42.39531 -4.79215 23.54222 -31.98554 -7.58221 2.37713 3.43309
0.0117 -0.01486 -0.08939 -182.85593 -30.67217 -0.14731 49.80632 4.33463 -3.01944 -19.43238 -4.94457 -2.11886 -4.14701 -124.7566 -17.65439 105.34793 66.86752 21.13557 -5.53957 -41.48255 53.22102 5.57644 102.80705 -106.30855 15.05482 -2.18266 26.06923 10.2441 -25.00659 -15.48806 -4.82101 -0.03731 -2.25253 42.34996 -4.79441 23.85158 -31.85169 -7.53177 2.31896 3.40377
0.01106 -0.01498 -0.09043 -182.72767 -30.92537 0.00974 49.7153 4.43572 -3.20197 -19.08509 -5.10932 -2.11886 -5.68701 -125.20943 -19.10585 103.70506 67.15896 20.46178 -5.57126 -48.15608 40.62978 17.63042 99.76834 -115.0188 23.00369 -2.65281 26.25803 10.24254 -24.84805 -15.4604 -6.81606 -0.79399 -2.6521 42.42928 -4.7985 24.09148 -31.71575 -7.48741 2.28264 3.38531
0.01059 -0.01503 -0.09152 -182.98141 -31.44296 0.11857 49.80768 4.63896 -3.34941 -18.67113 -5.23438 -2.11886 -7.64165 -125.63914 -20.93263 102.01791 67.30665 19.84925 -5.58839 -49.0744 36.49975 18.49877 96.30256 -117.39891 24.45159 -2.93038 26.72013 10.22204 -24.64231 -15.48647 -7.13363 -0.91071 -2.71312 42.87603 -4.81813 24.11367 -31.58258 -7.46065 2.30738 3.39711
